<svg width="44" height="38" viewBox="0 0 44 38" fill="none" xmlns="http://www.w3.org/2000/svg">
<g id="Group 1">
<path id="Vector" fill-rule="evenodd" clip-rule="evenodd" d="M7.85871 14.1491L18.8571 14.1429C19.3836 14.1429 19.8723 13.8804 20.1646 13.4436L20.4286 13.046V17.2841C20.4286 17.9206 20.8104 18.4926 21.3981 18.7361C21.9858 18.9797 22.6616 18.8461 23.111 18.3967L27.3601 14.1476L36.1334 14.2041C36.9993 14.2089 37.708 13.5096 37.7143 12.6421C37.7206 11.7747 37.0197 11.066 36.1523 11.0613L26.7237 11C26.3041 10.9969 25.9003 11.1634 25.6033 11.4604L23.5714 13.4907L23.573 7.85714C23.573 7.16414 23.1204 6.55286 22.4573 6.35329C21.7941 6.15215 21.0791 6.40829 20.6941 6.985L18.0164 11L7.85556 11.0063C6.98813 11.0063 6.28571 11.7119 6.28571 12.5793C6.28571 13.4467 6.99128 14.1491 7.85871 14.1491Z" fill="#034C81"/>
<path id="Vector_2" fill-rule="evenodd" clip-rule="evenodd" d="M20.4443 31.4239V34.5604L14.1444 34.5526C13.277 34.551 12.573 35.2534 12.5714 36.1209C12.5699 36.9883 13.2739 37.6939 14.1413 37.6954L29.8556 37.7143C30.723 37.7159 31.427 37.0119 31.4286 36.1444C31.4301 35.277 30.7261 34.573 29.8587 34.5714L23.5871 34.5636V31.4239H39.2857C40.5366 31.4239 41.7356 30.9273 42.6187 30.0441C43.5034 29.1594 44 27.9604 44 26.7096V4.71429C44 3.46343 43.5034 2.26443 42.6187 1.38129C41.7356 0.496572 40.5366 0 39.2857 0H4.71429C3.46343 0 2.26443 0.496572 1.38129 1.38129C0.496571 2.26443 0 3.46343 0 4.71429C0 10.1561 0 21.2693 0 26.7096C0 27.9604 0.496571 29.1594 1.38129 30.0441C2.26443 30.9273 3.46343 31.4239 4.71429 31.4239H20.4443ZM40.8571 25.1429V26.7096C40.8571 27.1276 40.6921 27.5267 40.3967 27.8221C40.1029 28.116 39.7021 28.281 39.2857 28.281H4.71429C4.29786 28.281 3.89714 28.116 3.60329 27.8221C3.30786 27.5267 3.14286 27.1276 3.14286 26.7096V25.1429H40.8571ZM40.8571 22H3.14286V4.71429C3.14286 4.29786 3.30786 3.89714 3.60329 3.60329C3.89714 3.30786 4.29786 3.14286 4.71429 3.14286H39.2857C39.7021 3.14286 40.1029 3.30786 40.3967 3.60329C40.6921 3.89714 40.8571 4.29786 40.8571 4.71429V22Z" fill="#034C81"/>
</g>
</svg>
