<svg width="84" height="102" viewBox="0 0 84 102" fill="none" xmlns="http://www.w3.org/2000/svg">
<g id="Group 176">
<g id="Group 175">
<g id="Group 170">
<g id="Path 548">
<path d="M82 88.2015C82 68.6823 79.3959 52.4404 53.4918 48.9181C52.1148 50.6442 50.3666 52.0379 48.3772 52.9957C46.3877 53.9536 44.208 54.451 42 54.451C39.7919 54.451 37.6122 53.9536 35.6228 52.9957C33.6333 52.0379 31.8852 50.6442 30.5082 48.9181C4.63495 52.4423 2 68.6842 2 88.1995" fill="white"/>
<path d="M82 88.2015C82 68.6823 79.3959 52.4404 53.4918 48.9181C52.1148 50.6442 50.3666 52.0379 48.3772 52.9957C46.3877 53.9536 44.208 54.451 42 54.451C39.7919 54.451 37.6122 53.9536 35.6228 52.9957C33.6333 52.0379 31.8852 50.6442 30.5082 48.9181C4.63495 52.4423 2 68.6842 2 88.1995" stroke="#034C81" stroke-width="2.89474" stroke-linecap="round" stroke-linejoin="round"/>
</g>
</g>
<g id="Group 171">
<path id="Path 549" d="M57.8879 22.1481C57.8879 33.2743 50.0023 43.0059 42.0164 43.004C34.0305 43.0021 26.683 33.2608 26.1429 22.1481C25.6028 11.0353 32.198 2 42.0164 2C51.8348 2 57.8879 11.0199 57.8879 22.1481Z" fill="white"/>
<path id="Path 550" d="M57.8879 22.1481C57.8879 33.2743 50.0023 43.0059 42.0164 43.004C34.0305 43.0021 26.683 33.2608 26.1429 22.1481C25.6028 11.0353 32.198 2 42.0164 2C51.8348 2 57.8879 11.0199 57.8879 22.1481Z" stroke="#034C81" stroke-width="2.89474" stroke-linecap="round" stroke-linejoin="round"/>
</g>
<g id="Group 172">
<g id="Path 551">
<path d="M17.1096 69.2863C14.3319 76.3636 14.409 87.1369 14.409 94.5557C23.1876 98.0621 32.5537 99.8644 42.0067 99.8661C51.4696 99.868 60.8424 98.0284 69.6025 94.4496C69.6025 87.7156 69.5447 78.0206 67.581 71.2827" fill="white"/>
<path d="M17.1096 69.2863C14.3319 76.3636 14.409 87.1369 14.409 94.5557C23.1876 98.0621 32.5537 99.8644 42.0067 99.8661C51.4696 99.868 60.8424 98.0284 69.6025 94.4496C69.6025 87.7156 69.5447 78.0206 67.581 71.2827" stroke="#034C81" stroke-width="2.89474" stroke-linecap="round" stroke-linejoin="round"/>
</g>
</g>
<g id="Group 173">
<g id="Path 552">
<path d="M2 88.2015C2 89.5692 7.80232 92.7771 14.3454 92.7771L2 88.2015Z" fill="white"/>
<path d="M2 88.2015C2 89.5692 7.80232 92.7771 14.3454 92.7771" stroke="#034C81" stroke-width="2.89474" stroke-linecap="round" stroke-linejoin="round"/>
</g>
</g>
<g id="Group 174">
<g id="Path 553">
<path d="M82 88.2015C82 89.5692 76.1977 92.7771 69.6547 92.7771L82 88.2015Z" fill="white"/>
<path d="M82 88.2015C82 89.5692 76.1977 92.7771 69.6547 92.7771" stroke="#034C81" stroke-width="2.89474" stroke-linecap="round" stroke-linejoin="round"/>
</g>
</g>
</g>
<path id="Path 555" d="M52.6585 73.5165H45.6139V66.4719H38.3841V73.5165H31.3395V80.7463H38.3841V87.7909H45.6139V80.7463H52.6585V73.5165Z" fill="white" stroke="#034C81" stroke-width="2.31624" stroke-linecap="round" stroke-linejoin="round"/>
</g>
</svg>
