<svg width="127" height="143" viewBox="0 0 127 143" fill="none" xmlns="http://www.w3.org/2000/svg">
<g id="Group 120">
<g id="Path 451">
<path d="M97.7313 140.997H8.01648C6.3579 140.996 4.76755 140.336 3.59505 139.163C2.42255 137.99 1.76404 136.399 1.76404 134.741V24.2721C1.76404 22.6135 2.42255 21.0228 3.59505 19.8497C4.76755 18.6766 6.3579 18.0172 8.01648 18.0164H118.797C120.456 18.0164 122.047 18.6754 123.22 19.8486C124.393 21.0218 125.052 22.613 125.052 24.2721V113.682" fill="white"/>
<path d="M97.7313 140.997H8.01648C6.3579 140.996 4.76755 140.336 3.59505 139.163C2.42255 137.99 1.76404 136.399 1.76404 134.741V24.2721C1.76404 22.6135 2.42255 21.0228 3.59505 19.8497C4.76755 18.6766 6.3579 18.0172 8.01648 18.0164H118.797C120.456 18.0164 122.047 18.6754 123.22 19.8486C124.393 21.0218 125.052 22.613 125.052 24.2721V113.682" stroke="#00800D" stroke-width="3.33712" stroke-miterlimit="10" stroke-linecap="round"/>
</g>
<path id="Path 452" d="M103.99 113.682C103.169 113.682 102.355 113.843 101.595 114.157C100.836 114.472 100.146 114.932 99.5648 115.513C98.9836 116.094 98.5225 116.784 98.2079 117.543C97.8933 118.302 97.7313 119.116 97.7313 119.938V141L125.049 113.685L103.99 113.682Z" fill="white" stroke="#00800D" stroke-width="3.33712" stroke-linecap="round" stroke-linejoin="round"/>
<g id="Group 119">
<path id="Path 453" d="M34.187 2C33.4172 2 32.6549 2.15166 31.9438 2.44634C31.2327 2.74101 30.5867 3.1729 30.0426 3.71735C29.4984 4.2618 29.0667 4.90814 28.7724 5.61942C28.4781 6.33071 28.3269 7.09302 28.3273 7.86278V31.6409C28.3273 33.195 28.9446 34.6854 30.0435 35.7843C31.1424 36.8832 32.6329 37.5005 34.187 37.5005C35.7413 37.4997 37.2318 36.8816 38.3306 35.7822C39.4294 34.6828 40.0467 33.1921 40.0467 31.6377V7.29694V7.86278C40.0471 7.09302 39.8958 6.33071 39.6015 5.61942C39.3072 4.90814 38.8757 4.2618 38.3315 3.71735C37.7874 3.1729 37.1412 2.74101 36.4301 2.44634C35.719 2.15166 34.9567 2 34.187 2Z" fill="white" stroke="#00800D" stroke-width="2.81055" stroke-linecap="round" stroke-linejoin="round"/>
<path id="Path 454" d="M92.6199 2C91.0656 2.00083 89.5751 2.61889 88.4763 3.71829C87.3775 4.81768 86.7603 6.30842 86.7603 7.86278V31.6409C86.7611 33.1947 87.3788 34.6846 88.4775 35.7833C89.5762 36.8821 91.0661 37.4997 92.6199 37.5005C94.1743 37.4997 95.6647 36.8816 96.7636 35.7822C97.8624 34.6828 98.4796 33.1921 98.4796 31.6377V7.29694V7.86278C98.48 7.09302 98.3288 6.33071 98.0345 5.61942C97.7402 4.90814 97.3087 4.2618 96.7645 3.71735C96.2204 3.1729 95.5742 2.74101 94.8631 2.44634C94.152 2.15166 93.3897 2 92.6199 2Z" fill="white" stroke="#00800D" stroke-width="2.81055" stroke-linecap="round" stroke-linejoin="round"/>
</g>
<path id="Path 455" d="M74.9437 75.1887C71.8828 75.1904 68.9478 76.4077 66.7842 78.573C64.6207 80.7383 63.4057 83.6742 63.4066 86.7351C63.4066 83.6733 62.1903 80.7368 60.0253 78.5717C57.8602 76.4066 54.9237 75.1903 51.8618 75.1903C48.7999 75.1903 45.8634 76.4066 43.6983 78.5717C41.5333 80.7368 40.317 83.6733 40.317 86.7351C40.317 93.1072 43.272 98.4198 50.1471 104.72C55.4063 109.536 63.2464 115.829 63.2464 115.829C63.2464 115.829 72.3911 108.599 76.6632 104.72C83.2019 98.7845 86.49 93.1072 86.49 86.7351C86.49 83.6728 85.2735 80.736 83.1081 78.5706C80.9427 76.4052 78.006 75.1887 74.9437 75.1887Z" fill="white" stroke="#00800D" stroke-width="2.67021" stroke-linecap="round" stroke-linejoin="round"/>
<path id="Line 75" d="M1 52.2659H125.81" stroke="#00800D" stroke-width="2.00202" stroke-linecap="round" stroke-linejoin="round"/>
</g>
</svg>
