<svg width="155" height="155" viewBox="0 0 155 155" fill="none" xmlns="http://www.w3.org/2000/svg">
<path id="Vector" d="M58.125 0C52.7568 0 48.4375 4.31933 48.4375 9.6875V48.4375H9.6875C4.31933 48.4375 0 52.7568 0 58.125V96.875C0 102.243 4.31933 106.562 9.6875 106.562H48.4375V145.312C48.4375 150.681 52.7568 155 58.125 155H96.875C102.243 155 106.562 150.681 106.562 145.312V106.562H145.312C150.681 106.562 155 102.243 155 96.875V58.125C155 52.7568 150.681 48.4375 145.312 48.4375H106.562V9.6875C106.562 4.31933 102.243 0 96.875 0H58.125ZM58.125 43.5912H96.875L77.5 62.9662L58.125 43.5912ZM58.125 67.8125H96.875L77.5 87.1875L58.125 67.8125ZM58.125 92.0287H96.875L77.5 111.404L58.125 92.0287Z" fill="#B60000"/>
</svg>
