<svg width="106" height="148" viewBox="0 0 106 148" fill="none" xmlns="http://www.w3.org/2000/svg">
<path id="Vector" fill-rule="evenodd" clip-rule="evenodd" d="M26.5 11.3846C26.5 5.09708 31.5846 0 37.8571 0H68.1429C74.4154 0 79.5 5.09708 79.5 11.3846H90.8571C99.2202 11.3846 106 18.1807 106 26.5641V132.821C106 141.204 99.2202 148 90.8571 148H15.1429C6.77984 148 0 141.204 0 132.821V26.5641C0 18.1807 6.77984 11.3846 15.1429 11.3846H26.5ZM37.8571 7.58974C35.7663 7.58974 34.0714 9.28878 34.0714 11.3846V18.9744C34.0714 21.0702 35.7663 22.7692 37.8571 22.7692H68.1429C70.2337 22.7692 71.9286 21.0702 71.9286 18.9744V11.3846C71.9286 9.28878 70.2337 7.58974 68.1429 7.58974H37.8571ZM22.7143 60.7179C20.6234 60.7179 18.9286 62.4169 18.9286 64.5128C18.9286 66.6087 20.6234 68.3077 22.7143 68.3077H49.2143C51.3051 68.3077 53 66.6087 53 64.5128C53 62.4169 51.3051 60.7179 49.2143 60.7179H22.7143ZM18.9286 45.5385C18.9286 43.4426 20.6234 41.7436 22.7143 41.7436H81.3929C83.4837 41.7436 85.1786 43.4426 85.1786 45.5385C85.1786 47.6344 83.4837 49.3333 81.3929 49.3333H22.7143C20.6234 49.3333 18.9286 47.6344 18.9286 45.5385ZM60.6665 74.5351C60.6665 71.1102 63.5129 68.3077 66.992 68.3077C70.4715 68.3077 73.3179 71.1102 73.3179 74.5351C73.3179 77.9603 70.4715 80.7628 66.992 80.7628C63.5129 80.7628 60.6665 77.9603 60.6665 74.5351ZM59.0185 89.7734H41.0201C39.2806 89.7734 37.8571 88.3723 37.8571 86.6597C37.8571 84.9471 39.2806 83.546 41.0201 83.546H91.4799C93.2194 83.546 94.6429 84.9471 94.6429 86.6597C94.6429 88.3723 93.2194 89.7734 91.4799 89.7734H73.4815L84.4017 127.138C84.4017 128.851 82.9783 130.252 81.2388 130.252C77.4247 130.252 74.5801 121.111 72.7913 115.361C72.2829 113.728 71.8597 112.368 71.5239 111.57H60.9761C60.6403 112.368 60.2171 113.728 59.7087 115.361C57.9199 121.111 55.0753 130.252 51.2612 130.252C49.5217 130.252 48.0983 128.851 48.0983 127.138L59.0185 89.7734ZM26.5 113.846V106.256H34.0714V113.846H26.5ZM18.9286 102.462C18.9286 100.366 20.6234 98.6667 22.7143 98.6667H37.8571C39.948 98.6667 41.6429 100.366 41.6429 102.462V117.641C41.6429 119.737 39.948 121.436 37.8571 121.436H22.7143C20.6234 121.436 18.9286 119.737 18.9286 117.641V102.462Z" fill="#00800D"/>
</svg>
